PathFileType	4	(X/Y/Z)	36_2_37_p1_0-163_filt_butterworth.trc
DataRate	CameraRate	NumFrames	NumMarkers	Units	OrigDataRate	OrigDataStartFrame	OrigNumFrames
44.0	44.0	7	27	m	44.0	122	163
Frame#	Time	RHip			RKnee			RAnkle			RBigToe			RSmallToe			RHeel			LHip			LKnee			LAnkle			LBigToe			LSmallToe			LHeel			Neck			Head			Nose			RShoulder			RElbow			RWrist			RThumb			RIndex			RPinky			LShoulder			LElbow			LWrist			LThumb			LIndex			LPinky			
		X1	Y1	Z1	X2	Y2	Z2	X3	Y3	Z3	X4	Y4	Z4	X5	Y5	Z5	X6	Y6	Z6	X7	Y7	Z7	X8	Y8	Z8	X9	Y9	Z9	X10	Y10	Z10	X11	Y11	Z11	X12	Y12	Z12	X13	Y13	Z13	X14	Y14	Z14	X15	Y15	Z15	X16	Y16	Z16	X17	Y17	Z17	X18	Y18	Z18	X19	Y19	Z19	X20	Y20	Z20	X21	Y21	Z21	X22	Y22	Z22	X23	Y23	Z23	X24	Y24	Z24	X25	Y25	Z25	X26	Y26	Z26	X27	Y27	Z27	
122	2.772727272727273	0.32668202686093123	0.5602610926506297	-0.1527610537400228	0.35647108749952605	0.6632301611586928	0.28836412421384383	0.37455645736482485	0.734662628538859	0.7199024796033334	0.3335738278521117	0.5309525103707595	0.7544624851942335	0.39793447745394256	0.5600666990260087	0.7541799969956664	0.34979211063487803	0.8390539977294628	0.7891503091830115	0.10730543988393831	0.5628360931454448	-0.12114198692048575	0.13526911207402337	0.6471621875695325	0.3069873923756815	0.17129050516771313	0.7299824903491628	0.710925006890886	0.1981623779536036	0.5533133702552618	0.7684062868338317	0.13476370814904662	0.5640548230080771	0.7673802494672262	0.1861555853060007	0.769307670252641	0.7739008174904232	0.17006408567563466	0.4654366664278484	-0.7397184511565179	0.15120321122158556	0.28673962400543707	-1.007810944899315	0.167470904898844	0.28960319594282585	-0.8222152106958586	0.33785678323203927	0.5302449540788066	-0.6951693741065224	0.4065674785034855	0.5245864192679787	-0.4143346880154567	0.40938005650096904	0.4678045712113218	-0.1371995097694354	0.3505384524674161	0.43540564444912583	-0.011494921297093182	0.36600657632123884	0.43124120224373336	-0.0047340920176922215	0.39988989255608626	0.5325566859604475	0.009988067996414489	-0.0048173948797646205	0.4535689533247485	-0.6623588950345387	-0.032894074439092216	0.5352754461669946	-0.3648627863536553	0.030086264988168254	0.49740858647498953	-0.09938472595449796	0.08054743842561668	0.4469159690512072	-0.005097020253185716	0.062783570381746	0.48781452355397564	0.05176798506411329	0.01622944303332958	0.5047693581944178	0.03956692332440518
123	2.7954545454545454	0.326687871387024	0.5602564433157549	-0.1519434978689898	0.3564786057448499	0.6633247079427402	0.2884066635076391	0.37455509102332435	0.7346525602865366	0.7199001720800324	0.3336054284899038	0.5309991414502226	0.7544186453792824	0.3977912588278949	0.5601088418411513	0.7555797031779741	0.3497834079534173	0.8390360320448869	0.7891653808489335	0.10732008621887201	0.5628864136466052	-0.12115240287528253	0.1361328607491644	0.6476560137308783	0.30691939940712887	0.171400806176657	0.7302066505879263	0.7112349818693529	0.19835396975245823	0.553653775131949	0.7685839233085336	0.13490652193705122	0.5639257513018018	0.7672883109281399	0.1863918717222628	0.7702203707779122	0.7747729114826581	0.1699662924349768	0.4655677320225191	-0.7407594872897864	0.15118665350206992	0.2873805508601303	-1.0082460478499995	0.16886313986155624	0.29068217506570804	-0.8230646499563974	0.33786504131250394	0.529986975994822	-0.6951713680582278	0.40675160311742087	0.5244099307742727	-0.41441370126687976	0.4093950741060429	0.4677639617313294	-0.13703644616193725	0.3505223493540116	0.43550645285462175	-0.01147077251980205	0.36597323315737884	0.43125788164230294	-0.004701491789964367	0.3984988402912144	0.5325716949036244	0.009979048574034219	-0.004815461019078112	0.45358758559241813	-0.6623742672036946	-0.03315808294901384	0.535165232354367	-0.3676322791710212	0.030061385706702505	0.49734185260530284	-0.099535465643719	0.08108359849446253	0.4474811483484411	-0.00452040335336248	0.06276383880759029	0.4878904395787576	0.051738619601484306	0.016244072689650543	0.5047574277894619	0.039665007799450425
124	2.8181818181818183	0.32666490385956876	0.5603336672494349	-0.15256852476960536	0.3564796363404047	0.6633659436656221	0.28844731827092207	0.374534696662149	0.734643999392639	0.7199172427060769	0.333558824877382	0.5309146497981063	0.7543960052426844	0.3977641512189763	0.5603036207373006	0.7585151380962274	0.34986739192448224	0.8389512067710645	0.7891466255056272	0.10732892387390813	0.5628938130646108	-0.12115487888114711	0.13836998203428486	0.6460431025426578	0.3062293247405653	0.17145157720995366	0.7302387945342821	0.7113039085227332	0.19841735465782823	0.5530027005996303	0.7685982626659452	0.1349222650565536	0.5640614896931948	0.7673401870134747	0.1863831631655234	0.7703100544766914	0.7748204531887539	0.16974104183811778	0.4656523407576482	-0.7427485029896379	0.15092070885396494	0.29060456239304794	-1.0081161278160649	0.1682100690118193	0.2943728413399087	-0.8230113190381755	0.33805481975123564	0.5295031674371331	-0.6951885405694578	0.4067820467103676	0.5235090166885595	-0.41449102847243796	0.40938478188853056	0.4676899043009725	-0.13698130629703814	0.35047551947832756	0.4355483373967129	-0.011472130563080121	0.36589972325574205	0.43124059068100085	-0.00469261601210964	0.3982507071478468	0.5328011077990374	0.009949323073700804	-0.004813484158039691	0.4536211506012891	-0.6623788309936733	-0.03298987975939868	0.5343430448554094	-0.36933780340246825	0.030090212071389906	0.4973731138279473	-0.09938924646835258	0.08152869966067611	0.4507599415227413	-0.0038659094881877184	0.06279618578045246	0.4879721736625368	0.05172825608538485	0.016223034064085002	0.5046913552762863	0.03955096460519611
125	2.840909090909091	0.32671074744496453	0.5602293067385539	-0.15349232991103529	0.3564848637965348	0.6633582566068741	0.28845720170562617	0.37450330138291976	0.7346323958251697	0.719954402481726	0.33348130531033876	0.5307477080168836	0.7543819234626533	0.39781434793448256	0.5604532101707003	0.7595157036757596	0.35000508219111615	0.8388609600326447	0.7891308881227739	0.10733646223584879	0.5628854318977229	-0.12114938141274745	0.13866671976799233	0.6470043557237967	0.30666161826139093	0.17147383195493723	0.7302128494484077	0.7112763804923328	0.19838023672775434	0.5527816323792575	0.768545271820938	0.13490176104150703	0.5641344253763497	0.7673858265639536	0.18635234404006476	0.7701614777151508	0.7746571056756907	0.16955923589342647	0.4656204733883351	-0.7446135262767143	0.14981318923616313	0.29538389195380366	-1.0081534699002779	0.1648894144298932	0.2991858135033761	-0.823696021906875	0.33797281051518824	0.5300430425179272	-0.6951757752960159	0.4067868884018999	0.5236760230790716	-0.41439970666407916	0.40936695923320754	0.46761893199460963	-0.13697237920772756	0.35042451602301317	0.43543996762899845	-0.011488925287791057	0.3658055257994467	0.4311729629452722	-0.004699139123540429	0.3983947863748138	0.5329138231913386	0.009970105730504959	-0.004794808908104003	0.45368198823157835	-0.6623999745980589	-0.03165016972651322	0.5305471176162095	-0.3694994723520223	0.030122503433553598	0.4973769227634024	-0.09937412063337064	0.08171425213353779	0.45564199443128983	-0.0037093782593289474	0.06307343722584444	0.48777642249477954	0.051745588752157665	0.016213903487937834	0.5045680278585996	0.03945785586334634
126	2.863636363636364	0.3268805637345598	0.5596557462647607	-0.15421528449560537	0.35649923093715574	0.6633147877127799	0.28842818076796284	0.3745590299176577	0.7345938461354832	0.7198388365223846	0.33343332656898983	0.5306759014352432	0.7543900539432526	0.3978479442710003	0.5603139762604878	0.7591769320301399	0.3496516281373185	0.8388145179190497	0.7891348197973638	0.10733221163461218	0.5629029359093305	-0.12117192817589215	0.13693903658930548	0.6476549899904307	0.30715651572231684	0.17149355274534012	0.7302180131423133	0.7112792392528458	0.1983461794257232	0.5528528976679159	0.7685298328067536	0.13489283638048857	0.5641205569519369	0.7673940548228316	0.18638884665720096	0.770086195776779	0.7745246373601417	0.16957746075775001	0.4655764133989611	-0.7450598056361804	0.14823389763308586	0.29782841544204813	-1.0077398229861136	0.16164002861524457	0.301648893401875	-0.8248507921995452	0.3369779447500816	0.5340761307701946	-0.695070121837787	0.40695508458381296	0.5289207103807311	-0.41379816040594253	0.40936157061678663	0.46761484347833876	-0.136950260950672	0.3504142835874393	0.43524653627978765	-0.011452979225279094	0.3657428740280032	0.43103777033422624	-0.0047212359267650725	0.3984645942975226	0.5329705248879135	0.0099697107056368	-0.004754554535895908	0.45378380811593017	-0.66242868477904	-0.02955432797733369	0.5247020936437676	-0.36920839504094294	0.030159410131695336	0.49734509481600886	-0.0994260518430129	0.08192920861583078	0.458550796065462	-0.004492395980119896	0.06350672533887868	0.48737514934183684	0.05169378562633733	0.016264337380389376	0.5044038431742903	0.0395273548200824
127	2.886363636363636	0.3267619949292245	0.5601093287849763	-0.15501367849627737	0.3565199704876645	0.6632748248982308	0.28839489312059385	0.3747699132879704	0.7345207774060657	0.7194534112220498	0.33339695117933155	0.5306116658266544	0.7544032213472857	0.39783800605109904	0.5600293859214613	0.7590404399232152	0.34850657180459244	0.8388003583217296	0.7891416699092151	0.10732372044819839	0.5629278110993097	-0.1212378081490226	0.1355713610980016	0.6454977411805507	0.30666488771843325	0.17150296154779993	0.7302036081749809	0.7112792738260362	0.19834347634314264	0.5529740541043073	0.7685728557167106	0.13490783036600568	0.5640921808005821	0.7673679667477026	0.18643754479488867	0.7699473746048479	0.7743909053690451	0.16968919865441257	0.465619709877632	-0.7443202573579376	0.1470003517458233	0.29793430952892874	-1.0065671532702332	0.1613558001609494	0.3016028880834163	-0.8249913770295865	0.33539396050892867	0.5403708511792176	-0.6949174410671232	0.4069481107188877	0.5386628812041928	-0.41281821214361136	0.40936657889387273	0.4676639468892726	-0.13692343195044754	0.3504428011840934	0.4351192456047853	-0.011304493747842068	0.36573293543513274	0.43090706914324706	-0.004751754633497054	0.3984610972596361	0.5330471338622944	0.009862793003511004	-0.004715748126821897	0.4538804461161982	-0.6623915108136957	-0.028219765373784733	0.5209734377197305	-0.36915741482994796	0.030185246954199184	0.49731988004180483	-0.09944359581083957	0.0823161859100773	0.45861035970184394	-0.005944636163933531	0.06370694457954171	0.48716164099640535	0.051471534575803654	0.016359126766225845	0.5042416654969646	0.03975481099244488
128	2.909090909090909	0.32572636335666766	0.564298641285007	-0.15507186162754888	0.3565303072308043	0.6632829200872327	0.2883843445619184	0.37467621928060274	0.7345921990278413	0.7196889188993578	0.3333474879316559	0.5304527392700258	0.7543946535354401	0.39781837291490457	0.5598521183407151	0.7592487455709972	0.34778670741411793	0.8388033774281177	0.7891628057736371	0.10733296021974288	0.5629314693604672	-0.12128805691954846	0.13580378428176204	0.6418211501276873	0.30550056000689185	0.1714899169610742	0.7301278953362595	0.711246158415227	0.19834042294079657	0.553041981360516	0.7686047992199723	0.13491224354172862	0.5641436316704616	0.7673608673167364	0.18643170116134253	0.7697540808158366	0.7742738182332641	0.16965936748791488	0.4656530586459682	-0.7445227275183102	0.14589631421654087	0.3008681891027718	-1.0064180946566659	0.163086091174432	0.3010744731584144	-0.8258334495591907	0.33438126636026494	0.5443573984642498	-0.694830299708487	0.40602558729905586	0.5448485223789364	-0.41219289570137596	0.4093706022955652	0.46769349894970347	-0.1368848039634304	0.35041105972328473	0.43524244466230955	-0.011416046793274513	0.36573611159576175	0.43090447585316344	-0.004764574254673362	0.398461490448041	0.5329944620472641	0.010005436146003502	-0.0046896438958867305	0.4539178193103114	-0.6622768488263231	-0.0280625819236904	0.5205500695637798	-0.36926396306186615	0.030184723507621705	0.4973429911922874	-0.09941284137631029	0.0825141585187005	0.4580908506900751	-0.006836223108750708	0.06352221247224898	0.48737451378438706	0.051256705398857544	0.01633835283821903	0.5040904650759641	0.03964215475892663
